<svg version="1.0" xmlns="http://www.w3.org/2000/svg" width="64.000000pt" height="64.000000pt"
    viewBox="0 0 64.000000 64.000000" preserveAspectRatio="xMidYMid meet">

    <g transform="translate(0.000000,64.000000) scale(0.100000,-0.100000)" fill="#000000" stroke="none">
        <path d="M20 610 c-11 -11 -20 -29 -20 -40 0 -11 21 -72 46 -135 l46 -115 -46
-115 c-25 -63 -46 -124 -46 -135 0 -27 35 -60 64 -60 13 0 143 58 290 129 382
186 382 176 0 362 -147 71 -277 129 -290 129 -13 0 -33 -9 -44 -20z m301 -144
l254 -124 -221 -1 -222 -1 -41 103 c-23 56 -41 109 -41 118 0 13 8 29 15 29 2
0 117 -56 256 -124z m11 -286 c-134 -66 -251 -121 -260 -122 -29 -5 -25 31 18
138 l42 104 222 -1 221 -1 -243 -118z" />
    </g>
</svg>