<svg version="1.0" xmlns="http://www.w3.org/2000/svg" width="64.000000pt" height="64.000000pt"
    viewBox="0 0 64.000000 64.000000" preserveAspectRatio="xMidYMid meet">

    <g transform="translate(0.000000,64.000000) scale(0.100000,-0.100000)" fill="#000000" stroke="none">
        <path d="M155 489 c-82 -60 -151 -114 -153 -118 -12 -34 38 -8 163 83 80 58
150 106 156 106 6 0 76 -48 155 -106 127 -93 164 -112 164 -85 0 11 -306 231
-321 231 -8 -1 -81 -50 -164 -111z" />
        <path d="M77 343 c-4 -3 -7 -73 -7 -154 0 -169 -6 -159 100 -159 102 0 100 -2
100 102 0 105 9 128 50 128 41 0 50 -23 50 -128 0 -73 3 -91 16 -96 23 -9 157
-7 172 2 18 12 13 303 -5 310 -10 3 -13 -29 -13 -137 l0 -141 -70 0 -70 0 0
88 c0 81 -2 90 -25 112 -32 30 -78 30 -110 0 -23 -22 -25 -31 -25 -112 l0 -88
-70 0 -70 0 0 140 c0 128 -4 152 -23 133z" />
    </g>
</svg>