<?xml version="1.0" standalone="no"?>
<!DOCTYPE svg PUBLIC "-//W3C//DTD SVG 20010904//EN"
 "http://www.w3.org/TR/2001/REC-SVG-20010904/DTD/svg10.dtd">
<svg version="1.0" xmlns="http://www.w3.org/2000/svg"
 width="512.000000pt" height="512.000000pt" viewBox="0 0 512.000000 512.000000"
 preserveAspectRatio="xMidYMid meet">

<g transform="translate(0.000000,512.000000) scale(0.100000,-0.100000)"
fill="#000000" stroke="none">
<path d="M489 5007 c-18 -12 -44 -38 -56 -56 -23 -33 -23 -39 -23 -324 0 -276
1 -291 21 -327 43 -76 150 -104 220 -57 19 12 44 42 57 67 20 41 22 58 22 222
l0 178 1830 0 1830 0 0 -1549 c0 -1069 3 -1558 11 -1578 16 -43 69 -92 111
-104 71 -19 157 22 184 87 12 28 14 305 14 1692 l0 1659 -23 34 c-12 18 -38
44 -56 56 l-34 23 -2037 0 -2037 0 -34 -23z"/>
<path d="M3572 4179 c-20 -6 -108 -77 -229 -185 l-196 -175 -46 53 c-100 118
-155 166 -194 173 -117 22 -220 -87 -187 -198 11 -37 153 -209 284 -345 87
-90 159 -91 263 -3 127 108 468 418 486 443 11 14 22 48 24 75 9 109 -98 194
-205 162z"/>
<path d="M190 3988 c-56 -39 -75 -73 -75 -136 0 -65 25 -111 78 -140 30 -16
108 -17 1087 -20 l1055 -2 45 22 c66 34 93 79 88 149 -5 65 -32 109 -82 133
-31 14 -137 16 -1099 16 l-1064 0 -33 -22z"/>
<path d="M510 3469 c-14 -6 -36 -20 -48 -32 -55 -51 -52 50 -52 -1655 l0
-1579 23 -34 c12 -18 38 -44 56 -56 l34 -23 2037 0 2037 0 34 23 c18 12 44 38
57 57 23 34 23 38 20 262 -3 212 -4 228 -24 255 -74 99 -221 87 -274 -23 -16
-32 -20 -61 -20 -147 l0 -107 -1830 0 -1830 0 0 1468 0 1468 -22 44 c-36 71
-127 107 -198 79z"/>
<path d="M3852 3259 c-20 -6 -108 -77 -229 -185 l-196 -175 -46 53 c-100 118
-155 166 -194 173 -117 22 -220 -87 -187 -198 11 -37 153 -209 284 -345 87
-90 159 -91 263 -3 127 108 468 418 486 443 11 14 22 48 24 75 9 109 -98 194
-205 162z"/>
<path d="M1030 3068 c-56 -39 -75 -73 -75 -136 0 -44 5 -65 23 -90 51 -71 4
-67 837 -70 l750 -2 45 22 c89 45 116 137 65 223 -46 79 2 75 -853 75 l-759 0
-33 -22z"/>
<path d="M4052 2299 c-20 -6 -108 -77 -229 -185 l-196 -175 -46 53 c-100 118
-155 166 -194 173 -117 22 -220 -87 -187 -198 11 -37 153 -209 284 -345 87
-90 159 -91 263 -3 127 108 468 418 486 443 11 14 22 48 24 75 9 109 -98 194
-205 162z"/>
<path d="M1310 2148 c-56 -39 -75 -73 -75 -136 0 -44 5 -65 23 -90 51 -71 6
-67 817 -70 l730 -2 45 22 c89 45 116 137 65 223 -46 79 -1 75 -833 75 l-739
0 -33 -22z"/>
<path d="M1790 1228 c-56 -39 -75 -73 -75 -136 0 -65 25 -111 78 -140 30 -16
129 -17 1567 -17 1531 0 1535 0 1570 21 52 30 82 88 77 147 -5 54 -27 91 -77
125 l-33 22 -1537 0 -1537 0 -33 -22z"/>
</g>
</svg>
