<?xml version="1.0" standalone="no"?>
<!DOCTYPE svg PUBLIC "-//W3C//DTD SVG 20010904//EN"
 "http://www.w3.org/TR/2001/REC-SVG-20010904/DTD/svg10.dtd">
<svg version="1.0" xmlns="http://www.w3.org/2000/svg"
 width="512.000000pt" height="512.000000pt" viewBox="0 0 512.000000 512.000000"
 preserveAspectRatio="xMidYMid meet">

<g transform="translate(0.000000,512.000000) scale(0.100000,-0.100000)"
fill="#000000" stroke="none">
<path d="M683 4786 c-166 -41 -303 -178 -348 -351 -13 -52 -15 -227 -15 -1392
0 -931 3 -1348 11 -1385 27 -129 121 -254 237 -316 117 -62 111 -62 830 -62
l654 0 -5 -27 c-3 -16 -27 -159 -53 -320 l-48 -292 -202 -3 c-186 -3 -205 -5
-230 -24 -53 -39 -69 -71 -69 -134 0 -63 16 -95 69 -134 27 -21 33 -21 1046
-21 1013 0 1019 0 1046 21 53 39 69 71 69 134 0 63 -16 95 -69 134 -25 19 -44
21 -230 24 l-202 3 -48 292 c-26 161 -50 304 -53 319 l-5 27 678 3 c638 3 682
4 729 22 113 43 212 127 264 226 64 120 61 42 61 1507 0 931 -3 1348 -11 1385
-27 129 -120 254 -235 315 -126 67 10 63 -1999 62 -1421 -1 -1831 -3 -1872
-13z m3723 -332 c15 -11 37 -33 48 -48 21 -27 21 -30 21 -1366 0 -1336 0
-1339 -21 -1366 -11 -15 -33 -37 -48 -48 l-27 -21 -1819 0 -1819 0 -27 21
c-15 11 -37 33 -48 48 -21 27 -21 32 -24 1339 -1 722 0 1326 3 1344 7 40 49
91 90 109 25 11 350 13 1837 11 l1807 -2 27 -21z m-1609 -3484 c29 -168 52
-311 53 -317 0 -10 -65 -13 -291 -13 l-291 0 5 28 c3 15 27 159 53 320 l49
292 185 -2 185 -3 52 -305z"/>
<path d="M1695 3986 c-16 -8 -222 -207 -457 -442 -462 -464 -450 -450 -433
-541 6 -33 60 -92 443 -475 384 -384 442 -438 475 -443 87 -16 162 29 188 113
26 88 24 90 -369 484 l-357 358 362 362 c316 317 362 368 368 401 25 131 -102
236 -220 183z"/>
<path d="M2812 3984 c-18 -10 -44 -31 -56 -48 -13 -17 -171 -401 -351 -854
-361 -906 -347 -863 -290 -938 60 -79 176 -85 242 -13 12 13 171 398 353 854
299 749 332 834 327 874 -12 106 -132 172 -225 125z"/>
<path d="M3292 3983 c-66 -32 -101 -105 -87 -180 6 -33 52 -84 368 -400 l361
-363 -361 -362 c-316 -317 -362 -368 -368 -401 -14 -73 17 -142 78 -174 36
-18 123 -21 152 -5 11 6 212 203 447 439 373 374 427 433 433 466 17 91 29 77
-433 541 -243 243 -441 434 -459 442 -43 18 -90 17 -131 -3z"/>
</g>
</svg>
