<?xml version="1.0" standalone="no"?>
<!DOCTYPE svg PUBLIC "-//W3C//DTD SVG 20010904//EN"
 "http://www.w3.org/TR/2001/REC-SVG-20010904/DTD/svg10.dtd">
<svg version="1.0" xmlns="http://www.w3.org/2000/svg"
 width="500.000000pt" height="500.000000pt" viewBox="0 0 500.000000 500.000000"
 preserveAspectRatio="xMidYMid meet">
<metadata>
Created by potrace 1.14, written by Peter Selinger 2001-2017
</metadata>
<g transform="translate(0.000000,500.000000) scale(0.100000,-0.100000)"
fill="#000000" stroke="none">
<path d="M2328 4935 c-2 -2 -30 -6 -63 -9 -74 -6 -118 -13 -215 -31 -41 -8
-88 -16 -105 -19 -16 -2 -30 -5 -30 -6 0 -1 -8 -3 -17 -6 -10 -2 -26 -6 -35
-8 -10 -3 -20 -5 -23 -6 -3 -1 -9 -3 -15 -5 -5 -1 -12 -3 -15 -4 -3 -1 -14 -4
-25 -6 -11 -3 -49 -16 -84 -30 -36 -14 -71 -25 -78 -25 -7 0 -13 -5 -13 -12 0
-6 -3 -9 -6 -5 -4 3 -19 0 -35 -9 -16 -8 -32 -15 -36 -15 -5 -1 -17 -8 -28
-15 -11 -8 -27 -14 -37 -14 -10 0 -18 -4 -18 -9 0 -8 -34 -22 -45 -18 -2 1
-11 -7 -20 -18 -9 -11 -14 -13 -10 -5 4 8 -1 6 -9 -4 -9 -11 -16 -16 -16 -12
0 5 -7 3 -15 -4 -8 -7 -15 -9 -15 -4 0 4 -7 -1 -15 -12 -8 -10 -15 -15 -15
-10 0 6 -7 1 -16 -10 -8 -10 -13 -12 -9 -4 4 8 -3 4 -14 -10 -11 -14 -21 -20
-21 -15 0 6 -5 2 -11 -8 -6 -9 -14 -15 -19 -12 -4 3 -10 -2 -14 -10 -3 -8 -12
-15 -20 -15 -7 0 -16 -7 -20 -15 -3 -8 -12 -15 -21 -15 -8 0 -15 -5 -15 -11 0
-5 -4 -8 -9 -5 -5 3 -12 -1 -15 -9 -3 -9 -17 -20 -31 -25 -16 -6 -23 -14 -19
-22 4 -6 3 -8 -3 -5 -12 8 -76 -37 -66 -46 3 -4 -4 -7 -16 -7 -13 0 -25 -9
-31 -22 -5 -13 -9 -19 -9 -13 -1 5 -21 -11 -45 -37 -24 -26 -47 -44 -51 -40
-5 4 -5 -1 -2 -10 4 -11 2 -17 -6 -15 -7 1 -11 -4 -10 -10 2 -7 0 -12 -5 -12
-20 3 -31 -3 -37 -22 -4 -11 -9 -18 -12 -16 -8 8 -43 -31 -43 -48 0 -8 -5 -14
-11 -13 -6 2 -16 -6 -22 -16 -12 -19 -19 -28 -69 -85 -15 -17 -24 -31 -20 -31
4 0 -1 -5 -11 -11 -9 -6 -15 -14 -12 -20 4 -5 -1 -9 -9 -9 -8 0 -18 -5 -22
-12 -4 -7 -3 -8 4 -4 18 11 14 -5 -5 -23 -33 -30 -59 -65 -43 -57 8 4 6 0 -4
-8 -11 -9 -23 -16 -27 -16 -4 0 -6 -9 -4 -20 2 -11 0 -18 -4 -16 -9 6 -76
-104 -115 -189 -15 -33 -38 -82 -51 -110 -24 -51 -94 -233 -99 -257 -2 -7 -6
-20 -9 -28 -16 -37 -62 -255 -72 -340 -13 -103 -14 -115 -20 -185 -10 -110 -6
-430 5 -430 1 0 3 -16 5 -35 5 -51 14 -117 25 -185 15 -93 16 -94 23 -101 4
-4 7 -15 7 -24 0 -17 44 -168 60 -205 4 -11 25 -63 45 -115 21 -52 43 -106 50
-120 7 -14 31 -61 53 -106 49 -98 87 -156 97 -146 3 4 6 2 5 -3 -5 -23 1 -46
10 -40 5 3 10 1 10 -5 0 -15 26 -41 33 -33 4 3 4 -4 2 -17 -3 -17 -1 -20 13
-15 9 3 13 3 9 -1 -4 -4 1 -16 10 -27 13 -15 14 -19 3 -13 -9 5 -8 2 2 -7 10
-8 15 -17 11 -21 -4 -4 1 -4 12 0 11 4 17 4 13 -1 -10 -11 11 -47 23 -40 5 4
9 -2 9 -12 0 -10 9 -25 19 -33 11 -7 18 -17 15 -22 -3 -4 2 -8 10 -8 9 0 16
-6 16 -14 0 -8 7 -17 16 -20 8 -3 12 -10 9 -16 -3 -5 1 -10 9 -10 8 0 18 -9
21 -20 3 -11 15 -20 26 -20 12 0 19 -7 19 -20 0 -11 3 -20 8 -20 4 -1 21 -12
37 -26 17 -15 24 -23 16 -19 -9 6 -12 4 -7 -3 4 -7 13 -12 21 -12 7 0 17 -9
20 -21 4 -11 9 -18 12 -15 3 2 24 -15 48 -40 24 -24 48 -44 55 -44 6 0 8 -4 5
-10 -3 -5 3 -10 14 -10 12 0 21 -4 21 -9 0 -4 28 -28 63 -52 34 -23 64 -45 67
-48 7 -8 41 -30 60 -38 8 -4 17 -10 20 -14 3 -4 41 -26 85 -49 44 -23 86 -47
94 -53 8 -7 17 -11 20 -11 7 1 73 -28 81 -36 3 -3 11 -6 18 -8 16 -3 98 -39
136 -59 16 -9 26 -11 22 -5 -4 6 6 5 21 -3 15 -8 36 -15 45 -15 9 0 19 -4 22
-9 3 -5 23 -12 43 -16 21 -5 45 -10 53 -12 8 -3 24 -6 35 -8 11 -2 20 -4 20
-5 0 -1 8 -3 19 -5 10 -2 41 -9 68 -15 27 -7 52 -10 55 -6 3 3 13 1 23 -4 9
-5 36 -11 61 -14 24 -3 69 -9 99 -13 109 -15 500 -8 585 10 11 3 42 8 69 11
27 4 78 14 113 22 35 8 68 12 73 9 6 -4 10 -1 10 6 0 7 3 10 6 6 3 -3 23 1 45
8 21 8 39 12 39 8 0 -3 7 0 15 7 8 7 15 10 15 7 0 -4 20 2 45 13 25 11 45 17
45 14 0 -2 10 1 23 8 12 7 25 13 30 14 4 1 9 3 12 4 3 1 8 3 13 4 20 4 122 50
122 56 0 3 10 6 22 7 11 1 24 6 27 10 3 4 47 28 96 53 50 25 92 48 93 53 2 4
8 7 14 7 9 0 113 69 145 95 6 6 28 21 48 35 21 14 46 33 56 42 10 10 24 18 29
18 6 0 18 13 29 30 10 16 21 27 24 23 6 -6 11 10 9 28 -1 4 6 6 16 5 9 0 16 5
15 11 -2 7 0 12 5 12 17 -3 35 1 30 7 -7 6 91 104 104 104 4 0 8 6 8 14 0 7
11 21 25 30 14 9 25 23 25 32 0 8 4 13 9 10 9 -6 26 22 23 37 -2 7 14 11 31 8
5 -1 6 2 3 7 -3 5 5 20 17 33 12 13 22 26 22 29 0 6 17 27 53 65 13 14 20 25
16 25 -4 0 3 8 14 19 12 10 19 21 15 25 -3 3 -1 6 5 6 7 0 12 5 12 10 0 6 5
16 10 23 17 20 54 79 80 127 14 25 29 48 33 51 5 3 8 9 6 13 -4 12 24 76 33
76 4 0 8 5 8 12 0 6 9 30 20 52 24 51 92 242 114 321 39 140 40 142 52 235 3
25 8 56 10 70 8 39 17 130 18 187 1 29 3 53 6 53 3 0 5 56 5 125 0 69 -3 125
-6 125 -3 0 -6 15 -6 33 1 49 -16 207 -26 247 -2 8 -7 38 -11 65 -7 54 -14 79
-48 195 -12 41 -22 77 -23 80 -3 15 -28 86 -34 95 -3 6 -6 12 -6 15 -1 16 -73
179 -85 190 -3 3 -6 13 -8 23 -3 17 -9 28 -67 127 -14 25 -28 53 -32 63 -3 9
-9 17 -14 17 -5 0 -9 7 -9 15 0 8 -4 15 -9 15 -5 0 -14 14 -21 30 -7 17 -16
30 -21 30 -5 0 -9 8 -9 17 0 9 -3 14 -6 10 -8 -8 -33 16 -27 26 2 4 0 7 -6 7
-5 0 -13 9 -16 20 -3 11 -13 20 -21 20 -8 0 -13 3 -13 8 3 20 -3 32 -17 32 -8
0 -12 5 -9 10 3 6 1 10 -5 10 -6 0 -9 4 -5 9 3 5 -4 12 -15 16 -11 3 -20 11
-20 16 0 5 -16 26 -35 45 -20 19 -33 39 -30 45 6 8 -8 13 -27 10 -4 0 -10 8
-13 19 -4 11 -13 20 -21 20 -8 0 -13 4 -10 8 6 10 -30 43 -38 35 -3 -4 -6 1
-6 11 0 9 -7 19 -15 23 -9 3 -37 26 -64 52 -60 58 -103 91 -118 91 -7 0 -17 9
-23 20 -6 11 -17 20 -25 20 -8 0 -15 5 -15 10 0 6 -7 10 -15 10 -8 0 -19 9
-25 20 -6 11 -17 20 -25 20 -8 0 -15 5 -15 10 0 6 -7 10 -15 10 -8 0 -15 5
-15 10 0 6 -7 10 -15 10 -8 0 -15 5 -15 11 0 5 -4 7 -10 4 -5 -3 -10 -1 -10 5
0 6 -4 8 -10 5 -5 -3 -10 1 -10 10 0 9 -4 13 -10 10 -5 -3 -10 -1 -10 4 0 6
-8 11 -18 11 -10 0 -23 5 -28 10 -16 16 -164 90 -180 90 -8 0 -14 5 -14 10 0
6 -7 10 -15 10 -8 0 -23 4 -33 9 -33 17 -91 39 -110 42 -4 0 -13 5 -19 11 -7
6 -13 7 -13 3 0 -4 -7 -2 -15 5 -8 6 -19 9 -25 5 -5 -3 -10 -2 -10 3 0 5 -6 9
-12 10 -7 1 -36 8 -65 16 -29 8 -68 17 -89 20 -20 4 -39 8 -43 10 -3 2 -28 7
-55 10 -27 4 -53 9 -57 11 -4 3 -31 7 -60 10 -30 4 -70 8 -89 11 -40 6 -427
14 -432 9z"/>
</g>
</svg>
