<svg width="70" height="70" viewBox="0 0 70 70" fill="none" xmlns="http://www.w3.org/2000/svg">
<path fill-rule="evenodd" clip-rule="evenodd" d="M10 21.6667V48.3333C10 50.1014 10.7525 51.7971 12.0921 53.0474C13.4316 54.2976 15.2485 55 17.1429 55H52.8571C54.7515 55 56.5684 54.2976 57.9079 53.0474C59.2474 51.7971 60 50.1014 60 48.3333V21.6667C60 19.8986 59.2474 18.2029 57.9079 16.9526C56.5684 15.7024 54.7515 15 52.8571 15H17.1429C15.2485 15 13.4316 15.7024 12.0921 16.9526C10.7525 18.2029 10 19.8986 10 21.6667Z" stroke="#D54646" stroke-width="3" stroke-linecap="round" stroke-linejoin="round"/>
<path d="M17.1426 25L34.9997 35L52.8569 25" stroke="#D54646" stroke-width="3" stroke-linecap="round" stroke-linejoin="round"/>
</svg>
