<svg width="31" height="30" viewBox="0 0 31 30" fill="none" xmlns="http://www.w3.org/2000/svg">
<path d="M15.5 0.916656C13.5848 0.916656 11.6885 1.29387 9.91916 2.02675C8.14983 2.75963 6.54217 3.83383 5.18799 5.18802C2.45308 7.92292 0.916626 11.6322 0.916626 15.5C0.916626 21.9458 5.10204 27.4146 10.8916 29.3542C11.6208 29.4708 11.8541 29.0187 11.8541 28.625V26.1604C7.81454 27.0354 6.95413 24.2062 6.95413 24.2062C6.28329 22.5146 5.33538 22.0625 5.33538 22.0625C4.00829 21.1583 5.43746 21.1875 5.43746 21.1875C6.89579 21.2896 7.66871 22.6896 7.66871 22.6896C8.93746 24.9062 11.0812 24.25 11.9125 23.9C12.0437 22.9521 12.4229 22.3104 12.8312 21.9458C9.59371 21.5812 6.19579 20.3271 6.19579 14.7708C6.19579 13.1521 6.74996 11.8542 7.69788 10.8187C7.55204 10.4542 7.04163 8.93749 7.84371 6.96874C7.84371 6.96874 9.06871 6.57499 11.8541 8.45624C13.0062 8.13541 14.2604 7.97499 15.5 7.97499C16.7395 7.97499 17.9937 8.13541 19.1458 8.45624C21.9312 6.57499 23.1562 6.96874 23.1562 6.96874C23.9583 8.93749 23.4479 10.4542 23.302 10.8187C24.25 11.8542 24.8041 13.1521 24.8041 14.7708C24.8041 20.3417 21.3916 21.5667 18.1395 21.9312C18.6645 22.3833 19.1458 23.2729 19.1458 24.6292V28.625C19.1458 29.0187 19.3791 29.4854 20.1229 29.3542C25.9125 27.4 30.0833 21.9458 30.0833 15.5C30.0833 13.5849 29.7061 11.6885 28.9732 9.91919C28.2403 8.14986 27.1661 6.5422 25.8119 5.18802C24.4577 3.83383 22.8501 2.75963 21.0808 2.02675C19.3114 1.29387 17.4151 0.916656 15.5 0.916656Z" fill="white"/>
</svg>
