<svg width="33" height="37" viewBox="0 0 33 37" fill="none" xmlns="http://www.w3.org/2000/svg">
<path d="M5.70869 30.0641C5.15044 29.6919 4.67034 29.2155 4.10837 28.5456C3.81668 28.1886 3.52762 27.8294 3.24121 27.4682C2.37965 26.3982 1.83628 25.9032 1.27617 25.7004C1.04049 25.6224 0.822806 25.498 0.635929 25.3346C0.449051 25.1712 0.296759 24.972 0.188019 24.7489C0.0792799 24.5257 0.0162922 24.2831 0.00276489 24.0352C-0.0107624 23.7873 0.0254441 23.5392 0.109253 23.3056C0.193062 23.0719 0.322778 22.8573 0.490764 22.6746C0.658749 22.4918 0.861608 22.3445 1.08739 22.2413C1.31318 22.1381 1.55733 22.0811 1.80547 22.0738C2.0536 22.0664 2.30071 22.1087 2.53223 22.1983C3.93159 22.7007 4.87876 23.566 6.15529 25.1533C5.98037 24.9356 6.78798 25.9479 6.96104 26.1563C7.3146 26.5787 7.57512 26.8355 7.77981 26.9713C8.15942 27.2263 8.87398 27.3361 9.91978 27.2319C9.96444 26.521 10.0947 25.8306 10.2957 25.1924C4.77269 23.8433 1.64647 20.2797 1.64647 13.2904C1.64647 10.9867 2.33498 8.90815 3.61524 7.1664C3.20958 5.50281 3.27099 3.49124 4.17722 1.22659C4.27983 0.970076 4.43828 0.739627 4.64106 0.551977C4.84384 0.364326 5.08586 0.224184 5.34955 0.141724C5.50028 0.0970636 5.58588 0.0784553 5.7366 0.0542644C7.23086 -0.174619 9.34105 0.370607 12.0914 2.09561C13.7304 1.71243 15.4082 1.5201 17.0915 1.52247C18.7885 1.52247 20.4763 1.71413 22.086 2.09561C24.8344 0.359442 26.9502 -0.187645 28.4538 0.0542644C28.6119 0.0803162 28.7478 0.113811 28.8594 0.149167C29.1178 0.23435 29.3543 0.375136 29.5523 0.561609C29.7504 0.748082 29.9051 0.975708 30.0057 1.22846C30.9119 3.48938 30.9733 5.50095 30.5677 7.16454C31.8535 8.90629 32.5364 10.97 32.5364 13.2904C32.5364 20.2835 29.4214 23.834 23.8984 25.1868C24.131 25.959 24.252 26.8206 24.252 27.7548C24.252 28.9903 24.2483 30.172 24.239 31.495C24.239 31.8486 24.2352 32.2282 24.2296 32.8088C24.6466 32.9006 25.0193 33.133 25.2852 33.467C25.5512 33.801 25.6942 34.2163 25.6903 34.6432C25.6863 35.0701 25.5357 35.4827 25.2637 35.8118C24.9916 36.1408 24.6147 36.3663 24.1962 36.4505C22.0748 36.8747 20.5042 35.4605 20.5042 33.6145L20.508 32.7827L20.5173 31.4708C20.5266 30.1552 20.5322 28.981 20.5322 27.7548C20.5322 26.4577 20.1898 25.6111 19.7394 25.2221C18.5094 24.1615 19.1328 22.1443 20.7462 21.9638C26.2654 21.3423 28.8148 19.2042 28.8148 13.2923C28.8148 11.5152 28.2342 10.0451 27.1158 8.81697C26.8809 8.55874 26.7233 8.23963 26.6611 7.89609C26.5989 7.55256 26.6346 7.19845 26.7641 6.87425C27.073 6.102 27.2033 5.09342 26.9409 3.87085L26.9223 3.87457C26.0086 4.13509 24.8567 4.69334 23.4648 5.64237C23.2404 5.79469 22.9854 5.8961 22.7176 5.93949C22.4498 5.98289 22.1758 5.96722 21.9148 5.89358C20.3441 5.45805 18.7214 5.23893 17.0915 5.24229C15.4353 5.24229 13.794 5.46559 12.2682 5.89358C12.0085 5.96662 11.736 5.98231 11.4696 5.93958C11.2032 5.89684 10.9493 5.7967 10.7255 5.64609C9.32431 4.70265 8.16872 4.14439 7.24575 3.88388C6.97965 5.09901 7.11176 6.10572 7.4188 6.87425C7.54833 7.19845 7.58403 7.55256 7.52184 7.89609C7.45965 8.23963 7.30207 8.55874 7.0671 8.81697C5.95618 10.0377 5.36816 11.5319 5.36816 13.2904C5.36816 19.193 7.91937 21.3479 13.4107 21.962C15.0203 22.1443 15.6474 24.154 14.4249 25.2166C14.0657 25.5273 13.6247 26.5787 13.6247 27.7548V33.6145C13.6247 35.4493 12.0728 36.8264 9.97746 36.4598C9.55174 36.3862 9.1649 36.1667 8.88329 35.8391C8.60168 35.5114 8.44285 35.096 8.43405 34.664C8.42525 34.2321 8.56702 33.8105 8.83505 33.4717C9.10308 33.1328 9.48066 32.8978 9.90303 32.8069V30.9647C8.20966 31.0801 6.81217 30.8028 5.70869 30.0641Z" fill="white"/>
</svg>
