<svg width="70" height="70" viewBox="0 0 70 70" fill="none" xmlns="http://www.w3.org/2000/svg">
<path d="M57.9482 7.65625H12.0518C9.625 7.65625 7.65625 9.625 7.65625 12.0518V57.9482C7.65625 60.375 9.625 62.3438 12.0518 62.3438H57.9482C60.375 62.3438 62.3438 60.375 62.3438 57.9482V12.0518C62.3438 9.625 60.375 7.65625 57.9482 7.65625ZM57.9482 57.9688C27.3369 57.9619 12.0312 57.9551 12.0312 57.9482C12.0381 27.3369 12.0449 12.0312 12.0518 12.0312C42.6631 12.0381 57.9688 12.0449 57.9688 12.0518C57.9619 42.6631 57.9551 57.9688 57.9482 57.9688ZM15.7637 28.1572H23.8779V54.2568H15.7637V28.1572ZM19.8242 24.5889C22.415 24.5889 24.5273 22.4834 24.5273 19.8857C24.5273 19.2681 24.4057 18.6565 24.1693 18.0859C23.933 17.5153 23.5866 16.9969 23.1498 16.5601C22.7131 16.1234 22.1946 15.777 21.624 15.5406C21.0534 15.3043 20.4418 15.1826 19.8242 15.1826C19.2066 15.1826 18.595 15.3043 18.0244 15.5406C17.4538 15.777 16.9353 16.1234 16.4986 16.5601C16.0619 16.9969 15.7155 17.5153 15.4791 18.0859C15.2427 18.6565 15.1211 19.2681 15.1211 19.8857C15.1143 22.4834 17.2197 24.5889 19.8242 24.5889ZM37.0713 41.3438C37.0713 37.9395 37.7207 34.6445 41.9385 34.6445C46.0947 34.6445 46.1562 38.5342 46.1562 41.5625V54.2568H54.2637V39.9424C54.2637 32.915 52.7461 27.5078 44.5361 27.5078C40.5918 27.5078 37.9463 29.6748 36.8594 31.7256H36.75V28.1572H28.9639V54.2568H37.0713V41.3438Z" fill="#D54646"/>
</svg>
