<svg width="33" height="31" viewBox="0 0 33 31" fill="none" xmlns="http://www.w3.org/2000/svg">
<path d="M6.82822 3.41581C6.82776 4.32129 6.46763 5.1895 5.82704 5.82945C5.18645 6.4694 4.31788 6.82867 3.4124 6.82822C2.50692 6.82776 1.63871 6.46763 0.998762 5.82704C0.358813 5.18645 -0.000452311 4.31788 4.2738e-07 3.4124C0.000453166 2.50692 0.360587 1.63871 1.00118 0.998762C1.64177 0.358813 2.51034 -0.000452311 3.41581 4.2738e-07C4.32129 0.000453166 5.1895 0.360587 5.82945 1.00118C6.4694 1.64177 6.82867 2.51034 6.82822 3.41581ZM6.93064 9.35636H0.102424V30.7287H6.93064V9.35636ZM17.7192 9.35636H10.9251V30.7287H17.6509V19.5133C17.6509 13.2655 25.7936 12.6851 25.7936 19.5133V30.7287H32.5364V17.1917C32.5364 6.65922 20.4846 7.05184 17.6509 12.2242L17.7192 9.35636Z" fill="white"/>
</svg>
