<svg width="70" height="70" viewBox="0 0 70 70" fill="none" xmlns="http://www.w3.org/2000/svg">
<path d="M35 10C30.0555 10 25.222 11.4662 21.1108 14.2133C16.9995 16.9603 13.7952 20.8648 11.903 25.4329C10.0108 30.0011 9.51575 35.0277 10.4804 39.8773C11.445 44.7268 13.826 49.1814 17.3223 52.6777C20.8187 56.174 25.2732 58.555 30.1227 59.5196C34.9723 60.4843 39.9989 59.9892 44.5671 58.097C49.1352 56.2048 53.0397 53.0005 55.7867 48.8893C58.5338 44.778 60 39.9445 60 35C60 31.717 59.3534 28.4661 58.097 25.4329C56.8406 22.3998 54.9991 19.6438 52.6777 17.3223C50.3562 15.0009 47.6002 13.1594 44.5671 11.903C41.534 10.6466 38.2831 10 35 10ZM42.95 47.88C42.8567 48.1136 42.7145 48.3244 42.533 48.4985C42.3514 48.6725 42.1347 48.8057 41.8974 48.8891C41.6601 48.9724 41.4078 49.004 41.1572 48.9818C40.9067 48.9595 40.6639 48.8839 40.445 48.76L33.6575 43.485L29.3025 47.505C29.2014 47.5796 29.0832 47.6277 28.9587 47.6447C28.8342 47.6617 28.7074 47.6472 28.59 47.6025L29.425 40.13L29.45 40.1525L29.4675 40.005C29.4675 40.005 41.68 28.885 42.1775 28.4125C42.6825 27.94 42.515 27.8375 42.515 27.8375C42.545 27.2625 41.6125 27.8375 41.6125 27.8375L25.43 38.2475L18.6925 35.9525C18.6925 35.9525 17.6575 35.5825 17.56 34.765C17.4575 33.955 18.725 33.515 18.725 33.515L45.5175 22.87C45.5175 22.87 47.72 21.89 47.72 23.515L42.95 47.88Z" fill="#D54646"/>
</svg>
