<svg width="456" height="579" viewBox="0 0 456 579" fill="none" xmlns="http://www.w3.org/2000/svg">
<path fill-rule="evenodd" clip-rule="evenodd" d="M97.4113 201.905C122.31 170.149 118.924 114.896 155.225 97.2722C192.243 79.3001 236.998 129.043 275.787 115.305C335.004 94.3308 362.819 -13.6927 423.591 2.22075C479.917 16.9697 453.269 112.761 473.942 167.192C487.039 201.676 508.41 230.938 523.281 264.696C539.77 302.126 572.552 337.322 566.722 377.805C560.898 418.239 516.347 440.263 493.152 473.891C469.999 507.458 468.608 564.764 429.59 576.617C386.842 589.604 350.03 532.225 305.371 530.935C266.929 529.824 236.663 566.89 198.326 569.935C150.526 573.732 92.9442 583.017 57.5963 550.616C23.1332 519.027 38.8625 460.807 29.3378 415.037C20.6084 373.088 -9.51598 331.576 3.52039 290.761C16.7972 249.192 70.4867 236.246 97.4113 201.905Z" fill="#D54646" fill-opacity="0.4"/>
</svg>
